PathFileType	4	(X/Y/Z)	c:\Git\powerlifing_model_clean\simulations\HC835B\Session1\HC835B_OGR_0006\marker_experimental.trc
DataRate	CameraRate	NumFrames	NumMarkers	Units	OrigDataRate	OrigDataStartFrame	OrigNumFrames
240.000000	240.000000	4	38	mm	240.000000	27	220
Frame#	Time	RPSI			LPSI			RASI			LASI			RTH1			RTH2			RTH3			RTH4			RSK1			RSK2			RSK3			RSK4			RCAL1			RCAL2			RCAL3			RST			RPT			RTN			RFMB			RSMB			RVMB			RFMH			RSMH			RVMH			RPM			LTH1			LTH2			LTH3			LTH4			LSK1			LSK2			LSK3			LSK4			LCAL1			LCAL2			LCAL3			LFMH			LVMH			
		X1	Y1	Z1	X2	Y2	Z2	X3	Y3	Z3	X4	Y4	Z4	X5	Y5	Z5	X6	Y6	Z6	X7	Y7	Z7	X8	Y8	Z8	X9	Y9	Z9	X10	Y10	Z10	X11	Y11	Z11	X12	Y12	Z12	X13	Y13	Z13	X14	Y14	Z14	X15	Y15	Z15	X16	Y16	Z16	X17	Y17	Z17	X18	Y18	Z18	X19	Y19	Z19	X20	Y20	Z20	X21	Y21	Z21	X22	Y22	Z22	X23	Y23	Z23	X24	Y24	Z24	X25	Y25	Z25	X26	Y26	Z26	X27	Y27	Z27	X28	Y28	Z28	X29	Y29	Z29	X30	Y30	Z30	X31	Y31	Z31	X32	Y32	Z32	X33	Y33	Z33	X34	Y34	Z34	X35	Y35	Z35	X36	Y36	Z36	X37	Y37	Z37	X38	Y38	Z38	

28	0.1125	446.2220458984376	1108.111694335938	-245.0128326416016	335.2842407226563	1106.25634765625	-253.2363433837891	508.9404602050782	1060.30029296875	-452.6181640625001	276.1300659179688	1048.568481445313	-455.4566345214845	575.3366699218751	790.2458496093752	-436.2734985351564	568.2163696289064	795.1206054687502	-496.6963195800782	557.7881469726564	719.6230468750001	-478.816619873047	540.5233154296876	724.5728759765626	-534.5388183593751	467.5413208007814	289.7450256347657	-435.6910095214845	465.3394775390626	269.3789367675782	-494.0251770019532	456.0532226562501	232.8498229980469	-445.9476928710939	441.3702087402345	216.3547363281251	-501.8010864257814	377.1628112792969	95.52209472656251	-370.2435913085938	346.0547485351563	58.07802200317384	-377.9348449707032	410.112030029297	59.40050506591798	-371.0830688476563	336.1064453125001	70.2356414794922	-447.6528320312501	436.0400390625001	68.35910797119142	-430.3909606933595	353.0263671875001	88.57889556884767	-503.2425842285157	358.2249450683594	72.49576568603517	-535.5972900390626	407.0674438476564	94.8626174926758	-543.1520385742189	448.6880493164064	42.45276641845704	-471.7515258789064	358.8235778808594	46.78207015991212	-590.1116943359376	414.4498596191407	58.18229293823244	-601.7396240234376	473.8105773925782	36.7546501159668	-548.0390625000001	405.7637023925782	43.27475357055665	-659.9147949218751	193.7919311523438	763.9662475585939	-325.1447448730469	193.7740783691407	747.6040649414064	-383.9006347656251	192.911605834961	679.7391967773439	-339.5165405273438	205.7473144531251	663.5453491210939	-396.949920654297	262.8578796386719	567.9555664062501	-31.09639549255372	248.9639129638672	519.2445068359376	-14.41222572326661	266.5512695312501	548.5699462890626	21.75539779663086	267.4341430664063	494.6252441406251	34.64628601074219	350.5308227539063	590.2470703125001	144.0794525146485	331.3323669433594	600.1441040039064	186.9705352783203	387.0722045898439	584.1799926757814	174.5281677246094	350.0245971679688	368.6383666992188	202.8638916015626	265.2932434082032	428.4158325195314	246.9639739990235	
29	0.1166666666666667	444.395477294922	1105.116943359375	-254.9818267822266	334.4515991210938	1100.302978515625	-263.8224487304688	509.1255187988282	1056.532348632813	-464.6703186035157	277.0603027343751	1043.13037109375	-466.373748779297	574.9184570312501	788.3242797851565	-448.3045043945314	568.3595581054689	793.2658691406252	-508.768280029297	556.2568359375001	717.6811523437501	-491.1158752441407	539.5689086914064	723.2556762695314	-546.7074584960939	466.2749023437501	290.3966674804688	-440.6917114257814	464.5026245117189	268.3807983398438	-498.450897216797	454.9029235839845	233.2218170166016	-449.4987182617189	440.8298645019532	215.1591186523438	-505.0464477539064	376.7460632324219	96.03364562988284	-370.6447143554688	345.7863159179688	58.4667320251465	-378.1649169921876	409.8426208496095	60.00903701782228	-371.3642272949219	335.6558227539063	70.14138793945314	-447.8614807128907	435.6040344238282	68.81515502929689	-430.7309570312501	352.1180114746094	88.1117401123047	-503.754852294922	357.4654235839844	71.92150115966798	-535.9152221679689	406.289520263672	94.64224243164064	-543.5771484375001	448.3868103027345	42.92007064819337	-471.9440307617189	358.4476928710938	46.21569061279298	-590.4533081054689	413.9626464843751	57.98502349853517	-601.8995361328126	472.3503417968751	37.33352279663087	-548.1591796875001	405.5287170410157	42.1557846069336	-660.3903198242189	192.8221893310547	760.7858886718751	-341.2410278320313	192.8121337890626	745.2965087890626	-400.1590576171876	191.3585815429688	676.5841674804689	-356.7807617187501	204.3500061035157	661.2962646484376	-414.4151000976564	261.6219177246094	567.6817626953126	-52.81076431274415	247.7158813476563	519.3394775390626	-35.32050323486329	265.4917297363282	549.1463012695314	0.2820585668087006	266.3140563964844	495.3101501464845	13.96923923492432	349.4334106445313	592.2824707031251	122.7611312866211	329.9560546875001	602.5460205078126	165.3616485595703	385.5868530273439	586.5522460937501	153.4402160644532	349.4061584472657	371.3423156738282	182.9883575439453	264.0132141113282	431.0057067871095	226.1908111572266	
30	0.1208333333333333	443.2340698242189	1102.953491210938	-265.3120727539063	334.2345581054688	1096.293823242188	-275.2064208984376	509.9191284179689	1053.415283203125	-476.7398681640626	278.2834167480469	1037.592651367188	-477.2522888183595	574.5147705078126	786.260681152344	-460.026824951172	568.0958862304689	791.4277954101565	-520.4616699218751	555.3192138671876	715.9650268554689	-503.1150207519532	538.6641235351564	721.8244018554689	-558.7106933593751	465.4142456054689	291.2310485839844	-445.472869873047	463.7623596191407	267.7715148925782	-502.6452026367189	454.2943420410157	233.8827362060547	-452.8030700683595	440.5152893066407	214.1614837646485	-507.8510131835939	376.9468688964844	96.28344726562503	-370.7964477539063	345.9444274902344	58.76821136474611	-378.2753295898438	410.0027770996095	60.26156997680665	-371.4470520019532	335.7801513671876	70.30796051025392	-447.973114013672	435.7596740722657	68.97261047363283	-430.8291015625001	352.0270385742188	87.85877227783205	-504.0840454101564	357.5630798339844	71.68629455566408	-536.1250610351564	406.3620910644532	94.32325744628908	-543.7402343750001	449.203582763672	43.19670104980469	-471.9140014648439	358.7664489746094	46.05767822265626	-590.6440429687501	414.1530761718751	57.684627532959	-602.0151367187501	472.493865966797	37.17422485351563	-548.2214355468751	405.7166442871095	41.09053421020509	-660.6843872070314	192.0260314941407	757.9882812500001	-357.5421752929688	191.95361328125	743.2963867187501	-416.5892639160157	190.0480651855469	673.8542480468751	-374.3046569824219	203.1334533691407	659.4987792968751	-432.1123657226564	260.3089294433594	567.2208862304689	-74.66616058349611	246.4255981445313	519.0604248046876	-56.4841766357422	264.2598571777344	549.6685180664064	-21.17960929870606	265.2654113769532	495.9385986328126	-6.953885555267336	348.2494506835938	594.0983276367189	101.3655471801758	328.4058227539063	604.4989013671876	143.7500762939453	384.1918029785157	588.6696166992189	132.3480072021485	348.9890136718751	373.4859619140626	162.6417846679688	262.7655029296876	432.936737060547	205.0142517089844	
31	0.125	442.8677368164064	1101.254638671875	-276.2012329101563	334.0397949218751	1094.45361328125	-286.8151550292969	511.7042236328126	1050.922973632813	-488.752655029297	279.4130249023438	1032.24365234375	-488.0526733398439	574.2299804687501	784.2059326171877	-471.4620056152345	567.4813842773439	789.6757812500002	-531.7951049804689	554.6271362304689	714.1118774414064	-514.7781372070314	537.7292480468751	720.2720336914064	-570.2495727539064	464.9968261718751	291.7991943359376	-450.2150268554689	463.3693237304689	266.8869934082032	-506.7984619140626	454.046844482422	234.2162170410157	-456.1299438476564	440.4355468750001	213.0607452392579	-510.6659545898439	377.2118225097657	96.48764801025393	-371.0935668945313	346.1571044921876	59.01351928710939	-378.3905639648438	410.2273559570314	60.4531707763672	-371.5772094726563	335.8921203613282	70.29512786865236	-448.0915832519532	435.9094543457032	68.93980407714845	-431.0433044433595	351.8776550292969	87.56051635742189	-504.4373474121095	357.6318359375001	71.34753417968751	-536.3911743164064	406.4213867187501	93.94528198242189	-543.9290771484376	449.8721008300782	43.24053192138673	-471.9980773925782	358.8344421386719	45.83917236328126	-590.8194580078126	414.2416992187501	57.18441772460939	-602.2908935546876	473.1369018554689	36.81277084350587	-548.3740844726564	405.8849182128907	40.22421646118165	-660.9405517578126	191.3836364746094	755.2005004882814	-373.6990661621094	191.1815490722657	741.5842895507814	-433.1257934570314	188.9663696289063	671.5173339843751	-391.921356201172	201.9396209716797	657.8286132812501	-449.9868469238282	258.9435119628907	567.1112060546876	-96.58406829833987	245.2610931396485	518.7243652343751	-78.02987670898439	263.1236572265626	549.5972900390626	-43.06200790405274	264.2680053710938	495.8755187988282	-28.32448768615723	346.9250488281251	595.5386962890626	80.00124359130861	326.6492309570313	605.9839477539064	122.207748413086	382.5681152343751	590.4031982421876	111.3016586303711	348.8751525878907	374.9441528320313	141.7192077636719	261.6204833984376	434.1412048339845	183.4634246826172	
